<svg width="90" height="90" viewBox="0 0 90 90" fill="none" xmlns="http://www.w3.org/2000/svg">
<path d="M65.656 25.1099L36.001 54.7649L19.846 38.6549L13.501 44.9999L36.001 67.4999L72.001 31.4999L65.656 25.1099ZM45.001 -0.00012207C20.161 -0.00012207 0.000976562 20.1599 0.000976562 44.9999C0.000976562 69.8399 20.161 89.9999 45.001 89.9999C69.841 89.9999 90.001 69.8399 90.001 44.9999C90.001 20.1599 69.841 -0.00012207 45.001 -0.00012207ZM45.001 80.9999C25.111 80.9999 9.00098 64.8899 9.00098 44.9999C9.00098 25.1099 25.111 8.99988 45.001 8.99988C64.891 8.99988 81.001 25.1099 81.001 44.9999C81.001 64.8899 64.891 80.9999 45.001 80.9999Z" fill="#11A154"/>
</svg>
